<!-- Generated by IcoMoon.io -->
<svg version="1.1" xmlns="http://www.w3.org/2000/svg" width="60" height="32" viewBox="0 0 60 32">
<title>client-1</title>
<path fill="#afb1b8" d="M24.533 7.111l2.598 2.46h7.248v6.862l2.598 2.46v-11.781h-12.444z"></path>
<path fill="#afb1b8" d="M22.4 9.467v11.444h12.089v-4.549l-7.281-6.893-4.808-0.003zM32.186 19.238h-7.873v-7.697h0.556v7.176h7.317v0.521zM25.881 23.034l0.291-0.599h0.243l-0.424 0.799v0.465h-0.22v-0.465l-0.424-0.798h0.244l0.291 0.599zM27.129 23.405h-0.489l-0.102 0.294h-0.228l0.477-1.264h0.197l0.478 1.264h-0.229l-0.103-0.294zM26.701 23.228h0.366l-0.183-0.524-0.183 0.524zM27.995 23.358c0-0.058 0.016-0.112 0.048-0.16 0.032-0.049 0.095-0.107 0.188-0.175-0.039-0.046-0.073-0.098-0.101-0.153l-0.002-0.005c-0.017-0.037-0.028-0.080-0.029-0.126v-0c0-0.099 0.030-0.177 0.090-0.235s0.141-0.087 0.243-0.087c0.092 0 0.167 0.027 0.226 0.082s0.089 0.121 0.089 0.201c0 0 0 0.001 0 0.002 0 0.053-0.015 0.103-0.041 0.145l0.001-0.001c-0.035 0.053-0.079 0.096-0.13 0.131l-0.002 0.001-0.086 0.063 0.244 0.288c0.035-0.069 0.053-0.146 0.053-0.231h0.183c0 0.155-0.037 0.283-0.11 0.383l0.186 0.22h-0.245l-0.071-0.084c-0.086 0.064-0.193 0.102-0.31 0.102-0.005 0-0.009-0-0.014-0h0.001c-0.125 0-0.225-0.033-0.3-0.099-0.069-0.061-0.112-0.15-0.112-0.249 0-0.004 0-0.008 0-0.012v0.001zM28.413 23.548c0.071 0 0.138-0.024 0.199-0.071l-0.276-0.326-0.027 0.019c-0.069 0.053-0.104 0.113-0.104 0.181 0 0.058 0.019 0.106 0.057 0.142 0.037 0.034 0.086 0.055 0.141 0.055 0.004 0 0.007-0 0.011-0l-0 0zM28.297 22.734c0 0.049 0.030 0.11 0.090 0.183l0.096-0.066 0.027-0.022c0.033-0.029 0.054-0.071 0.054-0.118 0-0.002-0-0.003-0-0.005v0c0-0 0-0.001 0-0.001 0-0.033-0.014-0.063-0.037-0.083l-0-0c-0.023-0.022-0.055-0.036-0.090-0.036-0.002 0-0.003 0-0.005 0h0c-0.002-0-0.004-0-0.005-0-0.037 0-0.070 0.016-0.093 0.042l-0 0c-0.023 0.027-0.037 0.062-0.037 0.1 0 0.002 0 0.004 0 0.006v-0zM30.593 23.288c-0.013 0.135-0.063 0.24-0.149 0.316s-0.202 0.113-0.346 0.113c-0.101 0-0.189-0.024-0.267-0.071-0.077-0.050-0.138-0.119-0.176-0.201l-0.001-0.003c-0.041-0.089-0.065-0.193-0.065-0.302 0-0.002 0-0.003 0-0.005v0-0.118c0-0.119 0.021-0.224 0.063-0.315s0.103-0.161 0.181-0.21c0.080-0.049 0.171-0.074 0.274-0.074 0.139 0 0.252 0.038 0.337 0.114s0.134 0.183 0.148 0.321h-0.219c-0.011-0.091-0.037-0.156-0.080-0.196s-0.105-0.061-0.187-0.061c-0.095 0-0.169 0.035-0.22 0.105s-0.077 0.172-0.078 0.306v0.112c0 0.137 0.025 0.241 0.073 0.313s0.121 0.108 0.215 0.108c0.086 0 0.151-0.020 0.195-0.058s0.071-0.103 0.082-0.193h0.219zM31.799 23.1c0 0.124-0.021 0.233-0.064 0.326s-0.105 0.165-0.184 0.215c-0.079 0.050-0.171 0.075-0.274 0.075-0.102 0-0.194-0.025-0.274-0.075-0.081-0.052-0.145-0.125-0.185-0.211l-0.001-0.003c-0.042-0.091-0.066-0.197-0.066-0.308 0-0.004 0-0.008 0-0.012v0.001-0.071c0-0.123 0.021-0.232 0.065-0.326s0.106-0.166 0.185-0.216c0.080-0.050 0.171-0.076 0.274-0.076s0.194 0.025 0.273 0.075c0.080 0.049 0.141 0.121 0.185 0.213s0.065 0.201 0.066 0.324v0.070zM31.579 23.034c0-0.14-0.027-0.247-0.080-0.322-0.047-0.068-0.125-0.112-0.213-0.112-0.004 0-0.008 0-0.012 0l0.001-0c-0.003-0-0.006-0-0.009-0-0.088 0-0.166 0.044-0.213 0.111l-0.001 0.001c-0.053 0.074-0.080 0.179-0.082 0.315v0.073c0 0.139 0.027 0.246 0.081 0.322s0.129 0.114 0.225 0.114c0.097 0 0.172-0.037 0.224-0.111s0.079-0.182 0.079-0.325v-0.066z"></path>
</svg>
