<!-- Generated by IcoMoon.io -->
<svg version="1.1" xmlns="http://www.w3.org/2000/svg" width="60" height="32" viewBox="0 0 60 32">
<title>client-3</title>
<path fill="#afb1b8" d="M25.367 23.394c0.011 0 0.021 0.005 0.028 0.012v0l0.073 0.077c-0.057 0.062-0.127 0.112-0.206 0.145-0.092 0.037-0.192 0.055-0.292 0.052-0.004 0-0.010 0-0.015 0-0.093 0-0.183-0.018-0.265-0.051l0.005 0.002c-0.159-0.064-0.281-0.19-0.339-0.346l-0.001-0.004c-0.029-0.078-0.046-0.169-0.046-0.263 0-0.003 0-0.007 0-0.010v0.001c-0-0.003-0-0.007-0-0.011 0-0.095 0.018-0.185 0.052-0.267l-0.002 0.005c0.032-0.079 0.080-0.151 0.142-0.212s0.137-0.107 0.219-0.139c0.090-0.033 0.186-0.050 0.282-0.049 0.090-0.002 0.179 0.013 0.263 0.044 0.072 0.030 0.139 0.071 0.196 0.123l-0.061 0.082c-0.004 0.006-0.009 0.011-0.015 0.015l-0 0c-0.006 0.004-0.014 0.007-0.022 0.007-0.001 0-0.002-0-0.003-0h0c-0.010-0.001-0.019-0.004-0.027-0.009l0 0-0.033-0.022-0.046-0.028c-0.042-0.022-0.090-0.039-0.141-0.048l-0.003-0c-0.030-0.005-0.065-0.009-0.1-0.009-0.003 0-0.006 0-0.009 0h0c-0.002-0-0.005-0-0.007-0-0.070 0-0.138 0.013-0.199 0.038l0.004-0.001c-0.062 0.024-0.115 0.059-0.159 0.103l0-0c-0.046 0.047-0.081 0.103-0.103 0.164-0.026 0.070-0.039 0.143-0.038 0.216-0.001 0.075 0.012 0.149 0.038 0.22 0.022 0.060 0.057 0.116 0.101 0.163 0.042 0.044 0.094 0.079 0.152 0.101 0.060 0.024 0.124 0.036 0.188 0.035 0.037 0 0.075-0.002 0.112-0.007 0.060-0.007 0.118-0.027 0.169-0.058 0.026-0.016 0.050-0.034 0.073-0.054 0.009-0.008 0.021-0.014 0.034-0.014h0zM27.48 23.008c0.001 0.092-0.016 0.185-0.049 0.271-0.032 0.082-0.079 0.153-0.138 0.21l-0 0c-0.060 0.059-0.132 0.106-0.212 0.137l-0.004 0.001c-0.083 0.031-0.178 0.049-0.278 0.049s-0.195-0.018-0.284-0.051l0.006 0.002c-0.084-0.033-0.155-0.080-0.215-0.139l0 0c-0.059-0.059-0.106-0.13-0.137-0.208l-0.001-0.004c-0.031-0.081-0.049-0.174-0.049-0.271s0.018-0.191 0.051-0.277l-0.002 0.005c0.031-0.079 0.078-0.152 0.139-0.213 0.060-0.057 0.132-0.102 0.211-0.132l0.004-0.001c0.083-0.031 0.178-0.050 0.278-0.050s0.195 0.018 0.284 0.052l-0.006-0.002c0.081 0.031 0.155 0.078 0.216 0.139s0.107 0.132 0.138 0.21c0.034 0.087 0.051 0.18 0.050 0.273zM27.288 23.008c0-0.003 0-0.007 0-0.011 0-0.074-0.013-0.145-0.036-0.21l0.001 0.004c-0.041-0.122-0.133-0.218-0.25-0.265l-0.003-0.001c-0.060-0.023-0.13-0.036-0.202-0.036s-0.142 0.013-0.206 0.037l0.004-0.001c-0.12 0.047-0.212 0.143-0.252 0.263l-0.001 0.003c-0.046 0.142-0.046 0.294 0 0.436 0.041 0.122 0.133 0.218 0.25 0.264l0.003 0.001c0.131 0.047 0.274 0.047 0.404 0 0.059-0.022 0.112-0.057 0.155-0.102 0.044-0.048 0.077-0.103 0.098-0.163 0.025-0.070 0.036-0.144 0.035-0.218zM28.921 23.237l0.020 0.049c0.007-0.017 0.014-0.033 0.021-0.049 0.008-0.019 0.016-0.035 0.025-0.050l-0.001 0.002 0.467-0.809c0.009-0.014 0.018-0.023 0.027-0.025s0.020-0.004 0.032-0.004c0.002 0 0.005 0 0.007 0h0.138v1.316h-0.164v-1.008c-0-0.007-0.001-0.015-0.001-0.023s0-0.016 0.001-0.024l-0 0.001-0.47 0.821c-0.006 0.013-0.016 0.023-0.027 0.030l-0 0c-0.011 0.007-0.025 0.011-0.039 0.011-0 0-0.001 0-0.001 0h-0.026c-0.014 0-0.028-0.004-0.040-0.011s-0.021-0.017-0.028-0.029l-0-0-0.484-0.826v1.057h-0.158v-1.314h0.138c0.002-0 0.004-0 0.007-0 0.011 0 0.022 0.002 0.032 0.005l-0.001-0c0.011 0.005 0.020 0.014 0.025 0.025l0 0 0.477 0.81c0.009 0.013 0.017 0.029 0.023 0.045l0.001 0.002zM30.68 23.172v0.493h-0.183v-1.314h0.408c0.005-0 0.010-0 0.016-0 0.075 0 0.148 0.010 0.218 0.030l-0.006-0.001c0.059 0.016 0.114 0.044 0.161 0.082 0.041 0.036 0.072 0.080 0.091 0.129 0.021 0.054 0.032 0.111 0.031 0.168 0.001 0.058-0.011 0.115-0.034 0.168-0.023 0.052-0.057 0.096-0.098 0.131l-0.001 0c-0.046 0.038-0.1 0.068-0.159 0.086l-0.003 0.001c-0.071 0.022-0.146 0.032-0.22 0.031l-0.221-0.004zM30.68 23.030h0.221c0.048 0.001 0.096-0.006 0.142-0.020 0.039-0.013 0.073-0.032 0.102-0.057l-0 0c0.027-0.023 0.048-0.052 0.062-0.085l0.001-0.002c0.014-0.032 0.022-0.069 0.022-0.108 0-0.001 0-0.002-0-0.004v0c0-0.004 0-0.009 0-0.013 0-0.034-0.007-0.066-0.019-0.095l0.001 0.002c-0.015-0.035-0.037-0.066-0.064-0.090l-0-0c-0.060-0.045-0.136-0.072-0.218-0.072-0.010 0-0.020 0-0.029 0.001l0.001-0h-0.221v0.542zM33.138 23.666h-0.144c-0.001 0-0.002 0-0.003 0-0.014 0-0.027-0.005-0.038-0.012l0 0c-0.010-0.008-0.018-0.018-0.023-0.030l-0-0-0.124-0.318h-0.625l-0.129 0.318c-0.005 0.012-0.013 0.022-0.023 0.029l-0 0c-0.011 0.008-0.024 0.013-0.039 0.013-0.001 0-0.002 0-0.002-0h-0.144l0.549-1.317h0.19l0.556 1.317zM32.233 23.177h0.516l-0.218-0.536c-0.015-0.034-0.029-0.075-0.040-0.117l-0.001-0.006-0.021 0.069c-0.007 0.024-0.014 0.042-0.022 0.060l0.002-0.004-0.216 0.535zM33.928 22.356c0.011 0.006 0.021 0.014 0.028 0.024l0.8 0.992v-1.022h0.164v1.317h-0.091c-0.001 0-0.002 0-0.002 0-0.013 0-0.025-0.003-0.035-0.008l0.001 0c-0.011-0.006-0.021-0.015-0.029-0.024l-0-0-0.799-0.991c0.001 0.015 0.001 0.030 0 0.045v0.979h-0.164v-1.317h0.097c0.011 0 0.022 0.002 0.033 0.006zM36.268 23.142v0.523h-0.183v-0.523l-0.506-0.793h0.164c0.001-0 0.002-0 0.004-0 0.013 0 0.026 0.004 0.036 0.012l-0-0c0.010 0.008 0.018 0.018 0.025 0.029l0 0.001 0.316 0.511c0.013 0.022 0.024 0.042 0.033 0.061s0.016 0.037 0.023 0.055l0.024-0.057c0.009-0.021 0.019-0.041 0.031-0.060l0.312-0.515c0.007-0.011 0.015-0.020 0.024-0.028l0-0c0.010-0.008 0.022-0.013 0.036-0.013 0.001 0 0.002 0 0.003 0h0.166l-0.507 0.796zM28.831 20.14c0.080 0.010 0.16 0.018 0.242 0.025 1.234-0.526 2.278-1.387 3.001-2.475s1.094-2.355 1.066-3.643l-1.36-1.296c0.090 0.427 0.142 0.918 0.142 1.421 0 0.963-0.189 1.881-0.532 2.72l0.017-0.048c-0.521 1.305-1.413 2.446-2.575 3.296z"></path>
<path fill="#afb1b8" d="M28.345 20.080l0.037 0.007c1.243-0.847 2.19-2.029 2.719-3.394 0.3-0.747 0.473-1.614 0.473-2.521 0-0.619-0.081-1.22-0.233-1.791l0.011 0.049-1.937-1.845c0.606 1.145 0.962 2.503 0.962 3.944 0 0.335-0.019 0.666-0.057 0.991l0.004-0.040c-0.189 1.681-0.876 3.276-1.979 4.6zM34.914 15.568c-0.329 1.415-1.128 2.691-2.279 3.639-0.318 0.264-0.672 0.509-1.047 0.722l-0.036 0.019c0.974-0.276 1.818-0.743 2.525-1.362l-0.008 0.006c0.7-0.612 1.254-1.373 1.615-2.235l0.015-0.040-0.786-0.748z"></path>
<path fill="#afb1b8" d="M34.606 15.36l-1.119-1.066c-0.025 1.281-0.413 2.466-1.065 3.463l0.015-0.025c-0.666 1.037-1.611 1.884-2.737 2.454h0.006c0.251 0 0.501-0.014 0.751-0.043 1.075-0.422 1.983-1.069 2.699-1.887l0.007-0.008c0.695-0.793 1.2-1.77 1.436-2.847l0.008-0.043zM28.507 9.806l-1.334-1.273c-1.193 0.439-2.219 1.211-2.943 2.215s-1.115 2.193-1.118 3.411c0.005 1.347 0.48 2.652 1.351 3.712s2.089 1.812 3.46 2.139c1.224-1.42 1.94-3.176 2.046-5.011s-0.407-3.654-1.461-5.193zM37.689 15.164c-0.005-1.597-0.673-3.128-1.858-4.257s-2.792-1.766-4.468-1.771c-0.775-0.001-1.543 0.135-2.265 0.402l8.17 7.783c0.267-0.638 0.422-1.379 0.422-2.157v-0z"></path>
</svg>
