<!-- Generated by IcoMoon.io -->
<svg version="1.1" xmlns="http://www.w3.org/2000/svg" width="60" height="32" viewBox="0 0 60 32">
<title>client-2</title>
<path fill="#afb1b8" d="M29.147 7.799h0.049c0.090 0 0.187 0.009 0.283 0.017 0.424 0.030 0.845 0.093 1.259 0.19v-1.018c-0.427-0.107-0.861-0.176-1.3-0.207-0.147-0.012-0.329-0.021-0.513-0.025l-0.012-0h-0.152c-0.88 0.004-1.756 0.116-2.609 0.336-0.971 0.242-1.902 0.621-2.767 1.126v10.097c0.758-0.421 1.636-0.773 2.56-1.011l0.078-0.017c0.649-0.173 1.406-0.294 2.184-0.339l0.030-0.001h0.030c0.125-0.006 0.25-0.010 0.379-0.011v-1.035c-1.028 0.014-2.018 0.152-2.963 0.402l0.085-0.019c-0.348 0.091-0.684 0.188-1 0.297l-0.36 0.122v-7.873l0.154-0.074c1.092-0.531 2.366-0.874 3.712-0.953l0.027-0.001c0.005-0 0.010-0.001 0.016-0.001s0.011 0 0.017 0.001l-0.001-0c0.143-0.007 0.287-0.011 0.428-0.011h0.162c0.075 0.002 0.149 0.004 0.224 0.008z"></path>
<path fill="#afb1b8" d="M31.684 8.865c-0.003 0-0.006 0-0.009 0-0.529 0-1.047-0.044-1.551-0.13l0.054 0.008c-0.21-0.036-0.369-0.069-0.526-0.106l0.056 0.011v9.981c0.647 0.16 1.312 0.238 1.979 0.233 0.929-0.004 1.827-0.126 2.683-0.352l-0.074 0.017c1.050-0.266 1.971-0.652 2.818-1.153l-0.049 0.027v-9.916c-0.758 0.421-1.635 0.773-2.559 1.011l-0.078 0.017c-0.896 0.23-1.817 0.348-2.742 0.352zM35.675 9.037l0.36-0.121v7.875l-0.154 0.074c-0.522 0.256-1.134 0.482-1.771 0.646l-0.069 0.015c-0.769 0.199-1.559 0.301-2.354 0.305-0.238 0-0.473-0.010-0.701-0.030l-0.246-0.022v-8.099l0.287 0.019c0.19 0.013 0.411 0.020 0.634 0.020 0.009 0 0.018 0 0.026-0h-0.001c1.064-0.004 2.093-0.143 3.074-0.402l-0.085 0.019c0.336-0.089 0.669-0.188 1-0.299zM24.084 21.764c-0.097-0.1-0.232-0.162-0.382-0.162-0.007 0-0.013 0-0.020 0l0.001-0c-0.002-0-0.005-0-0.008-0-0.080 0-0.157 0.016-0.227 0.045l0.004-0.001c-0.137 0.055-0.243 0.162-0.295 0.296l-0.001 0.004c-0.028 0.071-0.042 0.147-0.041 0.223v1.349c-0.004 0.095 0.015 0.189 0.053 0.277 0.032 0.069 0.078 0.131 0.135 0.181 0.054 0.045 0.117 0.078 0.185 0.096 0.066 0.018 0.134 0.028 0.202 0.028 0.075 0.001 0.149-0.015 0.218-0.047 0.203-0.090 0.341-0.289 0.341-0.521v0-0.151h-0.353v0.12c0 0.002 0 0.005 0 0.007 0 0.041-0.008 0.079-0.022 0.115l0.001-0.002c-0.012 0.030-0.029 0.055-0.051 0.076l-0 0c-0.040 0.031-0.092 0.051-0.147 0.052h-0c-0.006 0.001-0.013 0.001-0.021 0.001-0.059 0-0.112-0.029-0.144-0.073l-0-0c-0.030-0.048-0.047-0.105-0.047-0.167 0-0.005 0-0.009 0-0.014l-0 0.001v-1.258c-0.002-0.070 0.013-0.139 0.043-0.202 0.033-0.050 0.088-0.083 0.152-0.083 0.007 0 0.015 0 0.022 0.001l-0.001-0c0.002-0 0.004-0 0.007-0 0.062 0 0.116 0.030 0.15 0.076l0 0c0.037 0.048 0.059 0.108 0.059 0.174 0 0.002-0 0.005-0 0.007v-0 0.117h0.349v-0.138c0-0.002 0-0.004 0-0.006 0-0.083-0.016-0.162-0.045-0.234l0.002 0.004c-0.028-0.074-0.068-0.137-0.118-0.19l0 0zM26.179 21.749c-0.108-0.091-0.248-0.148-0.401-0.149h-0c-0.072 0-0.143 0.013-0.21 0.038-0.146 0.052-0.26 0.159-0.322 0.296l-0.001 0.003c-0.036 0.082-0.053 0.171-0.052 0.261v1.294c-0.002 0.091 0.015 0.181 0.052 0.265 0.032 0.069 0.078 0.131 0.137 0.181 0.054 0.050 0.117 0.089 0.186 0.114 0.068 0.025 0.139 0.038 0.21 0.038 0.154-0 0.295-0.058 0.402-0.152l-0.001 0.001c0.056-0.050 0.101-0.112 0.133-0.181 0.036-0.084 0.054-0.174 0.051-0.265v-1.294c0-0.004 0-0.008 0-0.012 0-0.090-0.019-0.176-0.053-0.253l0.002 0.004c-0.033-0.074-0.078-0.137-0.133-0.189l-0-0zM26.015 23.493c0.001 0.006 0.001 0.013 0.001 0.020 0 0.066-0.027 0.125-0.071 0.167l-0 0c-0.045 0.038-0.103 0.061-0.166 0.061s-0.122-0.023-0.166-0.061l0 0c-0.044-0.042-0.071-0.101-0.071-0.167 0-0.007 0-0.014 0.001-0.021l-0 0.001v-1.294c-0.001-0.006-0.001-0.013-0.001-0.020 0-0.066 0.027-0.125 0.071-0.167l0-0c0.045-0.038 0.103-0.061 0.166-0.061s0.122 0.023 0.166 0.061l-0-0c0.044 0.042 0.071 0.101 0.071 0.167 0 0.007-0 0.014-0.001 0.021l0-0.001v1.294zM28.93 24.071v-2.45h-0.339l-0.445 1.297h-0.006l-0.449-1.296h-0.335v2.449h0.35v-1.49h0.006l0.343 1.053h0.175l0.346-1.053h0.006v1.49h0.35zM30.918 21.793c-0.054-0.060-0.122-0.107-0.198-0.134-0.072-0.024-0.154-0.038-0.24-0.038-0.005 0-0.009 0-0.014 0h-0.519v2.45h0.349v-0.957h0.18c0.109 0.005 0.217-0.018 0.315-0.067 0.080-0.045 0.145-0.109 0.19-0.185l0.001-0.002c0.040-0.065 0.068-0.138 0.080-0.213 0.012-0.077 0.019-0.166 0.019-0.256 0-0.008-0-0.015-0-0.023v0.001c0.004-0.117-0.008-0.235-0.034-0.35-0.025-0.088-0.069-0.164-0.129-0.225l0 0zM30.738 22.54c-0.002 0.047-0.013 0.090-0.033 0.129l0.001-0.002c-0.020 0.038-0.051 0.067-0.089 0.085l-0.001 0c-0.043 0.020-0.093 0.031-0.147 0.031-0.006 0-0.013-0-0.019-0l0.001 0h-0.159v-0.833h0.18c0.005-0 0.011-0 0.017-0 0.051 0 0.099 0.011 0.143 0.032l-0.002-0.001c0.036 0.021 0.064 0.052 0.081 0.089l0 0.001c0.019 0.043 0.029 0.090 0.031 0.137v0.163c0 0.057 0.004 0.116 0 0.168h-0.004zM32.572 21.621h-0.286l-0.54 2.45h0.349l0.102-0.526h0.476l0.103 0.526h0.349l-0.553-2.45zM32.25 23.211l0.172-0.888h0.006l0.171 0.888h-0.349zM34.827 23.097h-0.006l-0.527-1.476h-0.335v2.45h0.349v-1.473h0.007l0.533 1.473h0.329v-2.449h-0.349v1.476zM36.959 21.621l-0.281 0.974h-0.007l-0.281-0.974h-0.37l0.479 1.414v1.035h0.349v-1.035l0.479-1.414h-0.369zM23.111 24.762h0.168v0.472h0.114v-0.472h0.167v-0.097h-0.449v0.097zM24.525 24.666l-0.22 0.569h0.121l0.047-0.129h0.227l0.048 0.129h0.124l-0.226-0.569h-0.121zM24.507 25.009l0.077-0.211 0.077 0.211h-0.155zM25.923 25.025h0.132v0.073c-0.037 0.030-0.084 0.048-0.135 0.048h-0c-0.002 0-0.005 0-0.008 0-0.046 0-0.086-0.021-0.113-0.054l-0-0c-0.026-0.038-0.042-0.085-0.042-0.136 0-0.005 0-0.009 0-0.013l-0 0.001c0-0.127 0.055-0.19 0.164-0.19 0.004-0 0.008-0.001 0.012-0.001 0.056 0 0.103 0.038 0.116 0.090l0 0.001 0.112-0.022c-0.024-0.111-0.104-0.167-0.241-0.167-0.002-0-0.005-0-0.008-0-0.073 0-0.14 0.028-0.191 0.073l0-0c-0.051 0.050-0.083 0.12-0.083 0.197 0 0.007 0 0.015 0.001 0.022l-0-0.001c-0 0.004-0 0.009-0 0.013 0 0.076 0.028 0.146 0.074 0.201l-0-0c0.050 0.052 0.12 0.084 0.198 0.084 0.006 0 0.012-0 0.019-0.001l-0.001 0c0.003 0 0.006 0 0.010 0 0.089 0 0.171-0.034 0.232-0.091l-0 0v-0.224h-0.246v0.096zM27.35 24.666h-0.115v0.569h0.398v-0.097h-0.283v-0.472zM28.557 24.666h-0.115v0.569h0.115v-0.569zM29.737 25.045l-0.233-0.38h-0.111v0.569h0.107v-0.372l0.229 0.372h0.114v-0.569h-0.106v0.38zM30.804 24.984h0.283v-0.097h-0.283v-0.124h0.305v-0.097h-0.42v0.569h0.432v-0.097h-0.316v-0.154zM33.391 24.89h-0.224v-0.224h-0.114v0.569h0.114v-0.249h0.224v0.249h0.114v-0.569h-0.114v0.224zM34.464 24.984h0.284v-0.097h-0.284v-0.124h0.306v-0.097h-0.42v0.569h0.431v-0.097h-0.316v-0.154zM35.919 24.984c0.099-0.016 0.149-0.068 0.149-0.158 0.001-0.005 0.001-0.011 0.001-0.016 0-0.045-0.022-0.085-0.056-0.11l-0-0c-0.042-0.022-0.092-0.034-0.144-0.034-0.008 0-0.016 0-0.023 0.001l0.001-0h-0.241v0.569h0.114v-0.238h0.022c0.003-0 0.006-0 0.009-0 0.022 0 0.044 0.005 0.063 0.013l-0.001-0c0.017 0.010 0.031 0.025 0.041 0.042l0.124 0.181h0.137l-0.069-0.111c-0.031-0.056-0.074-0.101-0.124-0.136l-0.001-0.001zM35.804 24.905h-0.084v-0.143h0.090c0.007-0.001 0.016-0.001 0.024-0.001 0.033 0 0.064 0.005 0.094 0.015l-0.002-0.001c0.015 0.014 0.025 0.034 0.025 0.056 0 0.013-0.003 0.025-0.009 0.035l0-0c-0.005 0.010-0.013 0.018-0.022 0.025l-0 0c-0.028 0.009-0.061 0.014-0.095 0.014-0.007 0-0.015-0-0.022-0.001l0.001 0zM37.017 24.984h0.283v-0.097h-0.283v-0.124h0.306v-0.097h-0.421v0.569h0.432v-0.097h-0.316v-0.154z"></path>
</svg>
