<!-- Generated by IcoMoon.io -->
<svg version="1.1" xmlns="http://www.w3.org/2000/svg" width="60" height="32" viewBox="0 0 60 32">
<title>client-5</title>
<path fill="#afb1b8" d="M21.507 21.788c0.082 0.101 0.125 0.229 0.123 0.359 0 0.008 0.001 0.018 0.001 0.028 0 0.169-0.074 0.321-0.191 0.426l-0.001 0c-0.159 0.121-0.356 0.179-0.554 0.166h-0.974v-2.277h0.954c0.016-0.001 0.035-0.002 0.054-0.002 0.178 0 0.343 0.057 0.477 0.155l-0.002-0.002c0.114 0.096 0.186 0.239 0.186 0.398 0 0.010-0 0.019-0.001 0.029l0-0.001c0.006 0.125-0.034 0.249-0.111 0.348-0.074 0.090-0.176 0.153-0.291 0.178 0.129 0.024 0.246 0.092 0.329 0.195zM20.364 21.444h0.408c0.092 0.007 0.185-0.020 0.259-0.076 0.054-0.050 0.088-0.121 0.088-0.2 0-0.008-0-0.016-0.001-0.024l0 0.001c0-0.006 0.001-0.013 0.001-0.019 0-0.080-0.033-0.152-0.087-0.203l-0-0c-0.065-0.049-0.147-0.078-0.235-0.078-0.011 0-0.022 0-0.033 0.001l0.001-0h-0.401v0.597zM21.071 22.317c0.060-0.052 0.097-0.128 0.097-0.213 0-0.006-0-0.013-0.001-0.019l0 0.001c0-0.005 0-0.011 0-0.017 0-0.087-0.038-0.164-0.099-0.217l-0-0c-0.069-0.052-0.156-0.083-0.25-0.083-0.009 0-0.019 0-0.028 0.001l0.001-0h-0.427v0.626h0.433c0.097 0.006 0.194-0.022 0.274-0.079zM23.457 22.767l-0.53-0.89h-0.199v0.89h-0.457v-2.277h0.864c0.018-0.001 0.038-0.002 0.059-0.002 0.207 0 0.397 0.074 0.544 0.197l-0.001-0.001c0.128 0.131 0.207 0.311 0.207 0.509 0 0.163-0.054 0.314-0.145 0.435l0.001-0.002c-0.107 0.123-0.252 0.204-0.412 0.231l0.565 0.91h-0.497zM22.727 21.566h0.373c0.26 0 0.389-0.115 0.389-0.345 0-0.006 0.001-0.013 0.001-0.019 0-0.092-0.037-0.175-0.096-0.237l0 0c-0.070-0.058-0.16-0.094-0.259-0.094-0.012 0-0.024 0.001-0.036 0.002l0.002-0h-0.378l0.005 0.693zM25.952 22.308h-0.91l-0.161 0.459h-0.479l0.836-2.252h0.517l0.832 2.252h-0.479l-0.157-0.458zM25.83 21.963l-0.332-0.961-0.332 0.961h0.665zM29.076 22.767h-0.454l-1.016-1.548v1.548h-0.452v-2.277h0.452l1.016 1.557v-1.557h0.453v2.277zM31.662 22.221c-0.095 0.172-0.235 0.31-0.405 0.399l-0.005 0.003c-0.197 0.1-0.416 0.149-0.637 0.143h-0.807v-2.277h0.807c0.010-0 0.023-0 0.035-0 0.219 0 0.427 0.052 0.61 0.144l-0.008-0.004c0.174 0.087 0.316 0.226 0.41 0.397 0.089 0.174 0.142 0.38 0.142 0.597s-0.052 0.423-0.145 0.605l0.003-0.008zM31.143 22.167c0.125-0.145 0.201-0.335 0.201-0.543s-0.076-0.398-0.202-0.545l0.001 0.001c-0.138-0.121-0.319-0.195-0.518-0.195-0.017 0-0.034 0.001-0.051 0.002l0.002-0h-0.315v1.474h0.315c0.015 0.001 0.032 0.002 0.049 0.002 0.199 0 0.381-0.074 0.519-0.196l-0.001 0.001zM26.236 7.822s5.85 2.217 5.726 5.426v5.427s-5.845-2.219-5.723-5.427l-0.003-5.426zM37.173 17.404c1.047-0.732 2.312-1.225 3.681-1.372l0.035-0.003v-1.699c-1.564 0.617-2.839 1.685-3.698 3.043l-0.019 0.031z"></path>
<path fill="#afb1b8" d="M36.509 17.916c0.913-1.821 2.451-3.216 4.325-3.924l0.055-0.018v-4.895s-8.331 3.158-8.154 7.727v7.727s0.371-0.141 0.955-0.406c0-0.247 0-0.496 0.026-0.747 0.183-2.196 1.223-4.119 2.782-5.455l0.011-0.009z"></path>
<path fill="#afb1b8" d="M35.717 20.787c0.044-0.536 0.141-1.066 0.291-1.582-1.064 1.254-1.724 2.88-1.764 4.659l-0 0.008c0.678-0.326 1.203-0.609 1.716-0.909l-0.114 0.062c-0.1-0.474-0.157-1.019-0.157-1.577 0-0.232 0.010-0.462 0.029-0.69l-0.002 0.030zM36.048 20.814c-0.016 0.188-0.026 0.406-0.026 0.626 0 0.495 0.047 0.979 0.136 1.448l-0.008-0.048c2.276-1.367 4.833-3.48 4.735-6.033v-0.223c-1.695 0.196-3.189 0.934-4.333 2.034l0.002-0.002c-0.262 0.645-0.442 1.391-0.506 2.171l-0.002 0.027z"></path>
</svg>
