<!-- Generated by IcoMoon.io -->
<svg version="1.1" xmlns="http://www.w3.org/2000/svg" width="60" height="32" viewBox="0 0 60 32">
<title>client-4</title>
<path fill="#2196f3" d="M20.41 13.095h-0.001c-0.804 0-1.456 0.636-1.456 1.419v0.001c0 0.784 0.652 1.419 1.456 1.419h0.001c0.804 0 1.456-0.636 1.456-1.419v-0.001c0-0.784-0.652-1.419-1.456-1.419zM31.16 12.641c-0.003-1.089-0.447-2.132-1.237-2.902s-1.86-1.204-2.977-1.206c-1.117 0.002-2.189 0.436-2.979 1.205s-1.235 1.814-1.237 2.903v6.004s8.43-0.915 8.431-6.003v-0.001zM16 20.616c0.004 0.793 0.333 1.507 0.86 2.019l0.001 0.001c0.535 0.519 1.266 0.839 2.072 0.84h0c0.805-0.001 1.536-0.321 2.072-0.84l-0.001 0.001c0.528-0.512 0.857-1.227 0.861-2.018v-4.179s-5.866 0.638-5.866 4.177zM18.933 21.364c-0 0-0.001 0-0.002 0-0.158 0-0.305-0.047-0.428-0.128l0.003 0.002c-0.125-0.082-0.222-0.196-0.281-0.331l-0.002-0.005c-0.037-0.084-0.058-0.183-0.058-0.286 0-0.052 0.005-0.102 0.016-0.151l-0.001 0.005c0.030-0.145 0.103-0.279 0.21-0.383 0.105-0.102 0.239-0.174 0.388-0.204l0.005-0.001c0.149-0.029 0.303-0.014 0.444 0.043s0.26 0.153 0.345 0.276c0.081 0.116 0.129 0.261 0.129 0.417 0 0.103-0.021 0.202-0.060 0.291l0.002-0.005c-0.038 0.091-0.095 0.174-0.166 0.244s-0.156 0.125-0.249 0.163c-0.087 0.036-0.188 0.057-0.294 0.057-0 0-0 0-0 0h0v-0.003zM24.921 20.9h-0.6v0.62h-0.313v-1.516h0.988v0.253h-0.675v0.391h0.6v0.252zM26.423 20.796c0 0.149-0.026 0.28-0.079 0.393s-0.128 0.199-0.227 0.26c-0.093 0.058-0.205 0.092-0.326 0.092-0.004 0-0.008-0-0.012-0h0.001c-0.125 0-0.238-0.030-0.336-0.091-0.1-0.062-0.178-0.15-0.228-0.254l-0.002-0.004c-0.052-0.11-0.082-0.238-0.082-0.374 0-0.005 0-0.009 0-0.014v0.001-0.075c0-0.149 0.027-0.281 0.080-0.394 0.054-0.114 0.131-0.201 0.228-0.261s0.211-0.092 0.338-0.092c0.126 0 0.238 0.031 0.336 0.092s0.174 0.148 0.228 0.261c0.054 0.113 0.081 0.244 0.081 0.393v0.068zM26.106 20.727c0-0.159-0.029-0.28-0.086-0.363-0.051-0.075-0.135-0.124-0.232-0.124-0.004 0-0.009 0-0.013 0l0.001-0c-0.003-0-0.007-0-0.012-0-0.096 0-0.18 0.049-0.23 0.122l-0.001 0.001c-0.057 0.081-0.086 0.201-0.086 0.358v0.074c0 0.155 0.028 0.275 0.085 0.361s0.139 0.128 0.246 0.128c0.004 0 0.008 0 0.012 0 0.095 0 0.179-0.048 0.229-0.122l0.001-0.001c0.056-0.083 0.085-0.203 0.085-0.361v-0.074zM27.436 21.122c0-0.003 0-0.006 0-0.009 0-0.051-0.024-0.097-0.062-0.126l-0-0c-0.042-0.032-0.117-0.065-0.225-0.1-0.1-0.031-0.185-0.066-0.266-0.108l0.009 0.004c-0.172-0.093-0.259-0.218-0.259-0.376 0-0.082 0.023-0.155 0.069-0.219s0.113-0.115 0.199-0.151c0.087-0.036 0.184-0.054 0.292-0.054s0.205 0.020 0.289 0.059c0.085 0.039 0.15 0.094 0.197 0.166s0.071 0.153 0.071 0.244h-0.313c0-0.070-0.022-0.123-0.065-0.161-0.044-0.039-0.105-0.059-0.185-0.059-0.076 0-0.136 0.016-0.178 0.049-0.039 0.028-0.064 0.073-0.064 0.124 0 0.001 0 0.003 0 0.004v-0c0 0.049 0.025 0.090 0.074 0.124 0.050 0.033 0.123 0.065 0.22 0.094 0.178 0.053 0.307 0.12 0.388 0.199s0.122 0.178 0.122 0.295c0 0.132-0.050 0.235-0.149 0.309s-0.233 0.112-0.401 0.112c-0.117 0-0.223-0.021-0.319-0.064-0.090-0.038-0.164-0.099-0.219-0.174l-0.001-0.002c-0.047-0.070-0.075-0.157-0.075-0.249 0-0.003 0-0.006 0-0.009v0h0.314c0 0.167 0.1 0.251 0.3 0.251 0.075 0 0.132-0.015 0.174-0.045 0.038-0.027 0.062-0.071 0.062-0.121 0-0.002-0-0.004-0-0.007v0zM29.104 20.256h-0.464v1.263h-0.313v-1.263h-0.458v-0.253h1.236v0.253zM30.196 20.863h-0.6v0.406h0.704v0.251h-1.017v-1.516h1.015v0.253h-0.702v0.361h0.6v0.245zM31.045 20.965h-0.249v0.555h-0.313v-1.516h0.564c0.179 0 0.317 0.040 0.415 0.12s0.146 0.193 0.146 0.338c0 0.103-0.023 0.19-0.068 0.26-0.050 0.073-0.119 0.129-0.2 0.163l-0.003 0.001 0.328 0.62v0.015h-0.336l-0.284-0.555zM30.796 20.711h0.252c0.078 0 0.139-0.020 0.182-0.059 0.040-0.039 0.065-0.094 0.065-0.154 0-0.004-0-0.008-0-0.012l0 0.001c0-0.071-0.021-0.128-0.061-0.169s-0.102-0.061-0.186-0.061h-0.251v0.455zM32.689 20.985v0.534h-0.313v-1.516h0.592c0.114 0 0.214 0.021 0.3 0.063s0.153 0.101 0.2 0.178c0.047 0.076 0.070 0.164 0.070 0.262 0 0.149-0.051 0.266-0.153 0.352s-0.242 0.128-0.422 0.128h-0.274zM32.689 20.732h0.279c0.083 0 0.145-0.020 0.188-0.059s0.066-0.094 0.066-0.166c0-0.003 0-0.007 0-0.011 0-0.065-0.025-0.125-0.066-0.17l0 0c-0.044-0.046-0.104-0.069-0.181-0.071h-0.286v0.476zM34.666 20.863h-0.6v0.406h0.704v0.251h-1.017v-1.516h1.015v0.253h-0.702v0.361h0.6v0.245zM36.116 20.256h-0.464v1.263h-0.313v-1.263h-0.458v-0.253h1.235v0.253zM37.208 20.863h-0.6v0.406h0.704v0.251h-1.017v-1.516h1.015v0.253h-0.702v0.361h0.6v0.245zM38.057 20.965h-0.249v0.555h-0.313v-1.516h0.564c0.179 0 0.318 0.040 0.415 0.12s0.146 0.193 0.146 0.338c0 0.103-0.022 0.19-0.068 0.26-0.050 0.073-0.119 0.129-0.2 0.163l-0.003 0.001 0.328 0.62v0.015h-0.336l-0.284-0.555zM37.808 20.711h0.252c0.079 0 0.139-0.020 0.182-0.059s0.064-0.096 0.064-0.166c0-0.071-0.020-0.128-0.061-0.169s-0.102-0.061-0.187-0.061h-0.251v0.455zM39.644 21.122c0-0.003 0-0.006 0-0.009 0-0.051-0.025-0.097-0.062-0.126l-0-0c-0.042-0.032-0.117-0.065-0.225-0.1-0.1-0.031-0.185-0.066-0.267-0.108l0.009 0.004c-0.172-0.093-0.258-0.218-0.258-0.376 0-0.082 0.023-0.155 0.069-0.219s0.113-0.115 0.199-0.151c0.083-0.034 0.179-0.054 0.281-0.054 0.004 0 0.008 0 0.012 0h-0.001c0.108 0 0.205 0.020 0.289 0.059s0.15 0.094 0.197 0.166c0.047 0.071 0.071 0.153 0.071 0.244h-0.313c0-0.070-0.022-0.123-0.065-0.161-0.044-0.039-0.105-0.059-0.185-0.059-0.076 0-0.136 0.016-0.178 0.049-0.039 0.028-0.064 0.073-0.064 0.123 0 0.001 0 0.003 0 0.004v-0c0 0.049 0.025 0.090 0.074 0.124 0.050 0.033 0.123 0.065 0.22 0.094 0.178 0.053 0.307 0.12 0.388 0.199s0.122 0.178 0.122 0.295c0 0.132-0.050 0.235-0.149 0.309s-0.233 0.112-0.401 0.112c-0.003 0-0.007 0-0.010 0-0.112 0-0.218-0.023-0.313-0.066l0.005 0.002c-0.090-0.038-0.165-0.099-0.219-0.174l-0.001-0.002c-0.047-0.070-0.075-0.156-0.075-0.249 0-0.003 0-0.006 0-0.009v0h0.313c0 0.167 0.1 0.251 0.3 0.251 0.074 0 0.132-0.015 0.174-0.045 0.038-0.027 0.063-0.071 0.063-0.121 0-0.002-0-0.004-0-0.006v0z"></path>
</svg>
