<!-- Generated by IcoMoon.io -->
<svg version="1.1" xmlns="http://www.w3.org/2000/svg" width="72" height="32" viewBox="0 0 72 32">
<title>feature-icon-4</title>
<path fill="#f5f4fa" d="M1.067 0h69.867c0.589 0 1.067 0.478 1.067 1.067v29.867c0 0.589-0.478 1.067-1.067 1.067h-69.867c-0.589 0-1.067-0.478-1.067-1.067v-29.867c0-0.589 0.478-1.067 1.067-1.067z"></path>
<path fill="#2196f3" d="M45.318 9.306c-0.037-0.111-0.133-0.194-0.249-0.211l-0.002-0-1.114-0.162-0.499-1.010c-0.105-0.213-0.453-0.213-0.558 0l-0.499 1.010-1.115 0.162c-0.152 0.022-0.267 0.151-0.267 0.307 0 0.088 0.036 0.167 0.095 0.223l0 0 0.807 0.786-0.19 1.11c-0.020 0.117 0.028 0.235 0.123 0.304 0.097 0.070 0.223 0.079 0.328 0.024l0.997-0.525 0.997 0.524c0.042 0.022 0.092 0.036 0.145 0.036 0.069 0 0.132-0.022 0.184-0.060l-0.001 0.001c0.096-0.069 0.144-0.187 0.123-0.304l-0.19-1.11 0.807-0.786c0.058-0.057 0.094-0.136 0.094-0.223 0-0.034-0.006-0.067-0.016-0.098l0.001 0.002zM43.882 10.080c-0.058 0.056-0.094 0.135-0.094 0.223 0 0.019 0.002 0.037 0.005 0.055l-0-0.002 0.111 0.65-0.583-0.307c-0.042-0.023-0.092-0.036-0.145-0.036s-0.103 0.013-0.147 0.037l0.002-0.001-0.583 0.307 0.111-0.65c0.003-0.016 0.005-0.034 0.005-0.053 0-0.087-0.036-0.166-0.094-0.222l-0-0-0.473-0.461 0.653-0.095c0.101-0.015 0.189-0.078 0.234-0.17l0.292-0.591 0.292 0.591c0.046 0.092 0.133 0.156 0.234 0.17l0.653 0.095-0.472 0.461zM41.911 18.638h-0.622v0.622h0.622v-0.622zM41.911 19.883h-0.622v0.622h0.622v-0.622zM42.533 19.26h-0.622v0.622h0.622v-0.622zM41.289 19.26h-0.622v0.622h0.622v-0.622zM39.733 22.060h-0.622v0.622h0.622v-0.622zM39.733 23.305h-0.622v0.622h0.622v-0.622zM40.356 22.683h-0.622v0.622h0.622v-0.622zM39.111 22.683h-0.622v0.622h0.622v-0.622zM36 20.816h-0.622v0.622h0.622v-0.622zM36 22.060h-0.622v0.622h0.622v-0.622zM36.622 21.438h-0.622v0.622h0.622v-0.622zM35.378 21.438h-0.622v0.622h0.622v-0.622zM30.089 10.238h-0.622v0.622h0.622v-0.622zM30.089 11.482h-0.622v0.622h0.622v-0.622zM30.711 10.86h-0.622v0.622h0.622v-0.622zM29.467 10.86h-0.622v0.622h0.622v-0.622z"></path>
<path fill="#212121" d="M41.084 14.926c-0.163-0.22-0.408-0.371-0.688-0.41l-0.005-0.001c-0.045-0.007-0.096-0.011-0.148-0.011-0.24 0-0.46 0.081-0.636 0.218l0.002-0.002-0.73 0.56-1.107 0.827-0.792-0.316c1.413-0.634 2.4-2.046 2.4-3.687 0-2.23-1.822-4.045-4.061-4.045s-4.061 1.814-4.061 4.045c0 0.808 0.242 1.56 0.653 2.193l-1.615-0.014c-0.005 0-0.009 0.003-0.014 0.003-0.033 0.002-0.064 0.008-0.093 0.019l0.002-0.001c-0.007 0.003-0.015 0.004-0.022 0.008-0.004 0.001-0.007 0.002-0.011 0.004l-1.886 0.931c-0 0-0.001 0-0.001 0.001l-1.104 0.531c-0.014 0.006-0.026 0.013-0.038 0.021l0.001-0.001c-0.281 0.189-0.464 0.505-0.464 0.865 0 0.173 0.042 0.336 0.117 0.48l-0.003-0.006c0.128 0.247 0.346 0.433 0.609 0.517l0.007 0.002c0.094 0.031 0.201 0.048 0.313 0.048 0.18 0 0.349-0.046 0.496-0.126l-0.005 0.003 0.81-0.431 1.321-0.682 0.791-0.005-3.956 3.937c-0.177 0.175-0.286 0.417-0.286 0.685 0 0.001 0 0.002 0 0.002v-0c0 0.001 0 0.001 0 0.002 0 0.268 0.109 0.511 0.286 0.686l0 0c0.176 0.175 0.419 0.283 0.686 0.283 0.001 0 0.001 0 0.002 0h-0c0.25 0 0.498-0.095 0.689-0.283l0.767-0.763 1.015-0.758 0.525 0.523-1.809 1.802c-0.177 0.175-0.286 0.417-0.286 0.685 0 0.001 0 0.002 0 0.002v-0c0 0.259 0.102 0.504 0.286 0.688 0.176 0.175 0.418 0.283 0.686 0.283 0.001 0 0.001 0 0.002 0h-0c0.249 0 0.499-0.094 0.689-0.283l2.618-2.609c0.004-0.004 0.009-0.005 0.013-0.009l3.013-3.301 2.025 0.288c0.015 0.002 0.029 0.003 0.044 0.003 0.038 0 0.074-0.009 0.109-0.022 0.010-0.004 0.019-0.009 0.029-0.014 0.011-0.006 0.023-0.009 0.034-0.016l1.874-1.244c0.007-0.005 0.011-0.012 0.017-0.017 0.007-0.006 0.017-0.008 0.024-0.015l0.742-0.695c0.203-0.19 0.329-0.459 0.329-0.758 0-0.233-0.077-0.449-0.207-0.622l0.002 0.003zM27.909 17.033c-0.057 0.032-0.125 0.050-0.198 0.050-0.046 0-0.090-0.007-0.131-0.021l0.003 0.001c-0.172-0.054-0.294-0.212-0.294-0.399 0-0.137 0.066-0.259 0.169-0.335l0.001-0.001 0.766-0.369 0.185 0.539 0.077 0.227-0.579 0.307zM29.949 15.966l-0.903 0.467-0.149-0.435-0.107-0.313 1.182-0.584-0.023 0.866zM38.757 12.105c0 0.536-0.128 1.041-0.349 1.493l-2.439-1.108c-0.025-0.335-0.2-0.626-0.456-0.807l-0.003-0.002 0.854-2.835c1.387 0.441 2.394 1.735 2.394 3.26zM31.881 12.105c0-1.887 1.542-3.422 3.438-3.422 0.147 0 0.292 0.013 0.435 0.031l-0.835 2.773c-0.011 0-0.022-0.003-0.033-0.003-0.602 0-1.093 0.488-1.093 1.089s0.49 1.089 1.093 1.089c0.405 0 0.755-0.223 0.944-0.551l2.253 1.024c-0.627 0.844-1.63 1.394-2.763 1.394-1.896 0-3.438-1.535-3.438-3.422zM35.355 12.571c0 0.257-0.211 0.467-0.47 0.467-0 0-0.001 0-0.001 0-0.258 0-0.468-0.209-0.469-0.467v-0c0-0.257 0.211-0.467 0.47-0.467s0.47 0.209 0.47 0.467zM28.105 21.335c-0.064 0.063-0.152 0.102-0.249 0.102s-0.185-0.039-0.249-0.102l0 0c-0.064-0.063-0.103-0.15-0.103-0.246s0.039-0.183 0.103-0.246l0-0 0.561-0.559 0.497 0.494-0.559 0.557zM29.979 23.513c-0.064 0.063-0.152 0.103-0.25 0.103s-0.185-0.039-0.249-0.102l0 0c-0.064-0.063-0.103-0.15-0.103-0.246s0.039-0.183 0.103-0.246l0-0 0.562-0.559 0.497 0.494-0.56 0.557zM32.010 21.49l-0.001 0.001-1.030 1.027-0.497-0.494 1.030-1.025c0.023-0.023 0.038-0.051 0.052-0.079 0.004-0.008 0.012-0.015 0.015-0.023 0.010-0.024 0.011-0.050 0.015-0.075 0.002-0.014 0.008-0.028 0.008-0.043 0-0.021-0.007-0.041-0.012-0.061-0.004-0.019-0.004-0.038-0.011-0.056-0.014-0.031-0.032-0.057-0.053-0.080l0 0c-0.006-0.007-0.008-0.016-0.015-0.022h-0.001l-0.001-0.001-0.937-0.933c-0.010-0.010-0.023-0.014-0.034-0.022-0.015-0.012-0.031-0.024-0.049-0.033l-0.002-0.001c-0.015-0.007-0.034-0.014-0.053-0.018l-0.002-0c-0.017-0.006-0.038-0.010-0.059-0.012l-0.001-0c-0.004-0-0.009-0-0.013-0-0.015 0-0.029 0.001-0.044 0.003l0.002-0c-0.021 0.003-0.041 0.005-0.061 0.012s-0.037 0.016-0.055 0.026c-0.012 0.006-0.025 0.009-0.035 0.017l-1.035 0.772-0.525-0.523 1.399-1.392 2.543 2.502-0.541 0.536zM35.988 17.397c-0.009-0.001-0.017 0.002-0.026 0.002-0.005-0-0.010-0-0.015-0-0.018 0-0.036 0.002-0.054 0.005l0.002-0c-0.040 0.006-0.077 0.020-0.109 0.041l0.001-0.001c-0.018 0.011-0.033 0.022-0.049 0.036-0.007 0.006-0.017 0.010-0.023 0.017l-2.741 3.002-2.525-2.483 1.653-1.644c0.056-0.056 0.091-0.134 0.091-0.22 0-0.172-0.139-0.311-0.311-0.311-0.001 0-0.001 0-0.002 0h0l-1.294 0.007 0.016-0.938 1.811 0.015c0.737 0.756 1.766 1.226 2.904 1.226 0.001 0 0.001 0 0.002 0h-0c0.255 0 0.504-0.027 0.746-0.071 0.023 0.019 0.046 0.037 0.075 0.049l1.406 0.56 0.089 0.443 0.104 0.516-1.752-0.249zM38.345 17.501l-0.182-0.909 0.844-0.63 0.552 0.733-1.214 0.805zM40.535 15.849l-0.489 0.458-0.543-0.721 0.485-0.372c0.091-0.070 0.205-0.098 0.317-0.083 0.113 0.016 0.212 0.075 0.28 0.166 0.051 0.068 0.082 0.155 0.082 0.248 0 0.12-0.051 0.228-0.132 0.304l-0 0z"></path>
<path fill="#212121" d="M34.601 17.484l-1.25-1.245c-0.056-0.056-0.134-0.091-0.219-0.091s-0.163 0.035-0.219 0.091v0l-1.25 1.245c-0.058 0.059-0.091 0.138-0.091 0.221s0.033 0.162 0.091 0.221l1.25 1.245c0.056 0.056 0.134 0.091 0.219 0.091s0.163-0.035 0.219-0.091v0l1.25-1.245c0.057-0.056 0.092-0.134 0.092-0.221s-0.035-0.164-0.092-0.221v0zM33.132 18.51l-0.809-0.805 0.809-0.806 0.809 0.805-0.809 0.805zM36.679 9.625l-0.15 0.604c0.041 0.010 1.014 0.263 1.014 1.253h0.622c0-1.177-0.972-1.73-1.486-1.858zM38.165 12.105h-0.622v0.622h0.622v-0.622z"></path>
</svg>
