<!-- Generated by IcoMoon.io -->
<svg version="1.1" xmlns="http://www.w3.org/2000/svg" width="32" height="32" viewBox="0 0 32 32">
<title>linkedin-icon</title>
<path fill="#fff" d="M32 16c0 0.006 0 0.013 0 0.020 0 4.412-1.791 8.405-4.686 11.293l-0 0c-2.888 2.895-6.881 4.687-11.293 4.687-0.007 0-0.014 0-0.021 0h0.001c-0.006 0-0.013 0-0.020 0-4.412 0-8.405-1.791-11.293-4.686l-0-0c-2.895-2.888-4.687-6.881-4.687-11.293 0-0.007 0-0.014 0-0.021v0.001c0-0.006 0-0.013 0-0.020 0-4.412 1.791-8.405 4.686-11.293l0-0c2.888-2.895 6.881-4.687 11.293-4.687 0.007 0 0.014 0 0.021 0h-0.001c0.006 0 0.013 0 0.020 0 4.412 0 8.405 1.791 11.293 4.686l0 0c2.895 2.888 4.687 6.881 4.687 11.293 0 0.007 0 0.014 0 0.021v-0.001z"></path>
<path fill="#afb1b8" d="M23.269 23.273h0.004v-5.335c0-2.609-0.562-4.62-3.613-4.62-1.466 0-2.451 0.804-2.852 1.567h-0.042v-1.324h-2.893v9.711h3.012v-4.808c0-1.266 0.24-2.491 1.808-2.491 1.545 0 1.567 1.445 1.567 2.572v4.728h3.009zM8.967 13.562h3.016v9.711h-3.016v-9.711zM10.474 8.727c-0.965 0-1.747 0.782-1.747 1.747v0c0 0.964 0.783 1.763 1.747 1.763s1.746-0.799 1.746-1.763c-0-0.964-0.782-1.746-1.746-1.747h-0z"></path>
</svg>
